<?xml version="1.0" encoding="UTF-8" standalone="no"?>
<svg xmlns="http://www.w3.org/2000/svg" viewBox="180 245 660 525" fill="currentColor" fill-rule="evenodd">
<path fill="currentColor" d="&#xA;  M 520.02 357.64&#xA;  A 0.09 0.09 0.0 0 0 520.20 357.64&#xA;  L 551.44 255.46&#xA;  A 0.37 0.37 0.0 0 1 551.79 255.20&#xA;  L 561.47 255.20&#xA;  A 0.71 0.71 0.0 0 1 562.15 256.11&#xA;  L 521.98 391.71&#xA;  A 1.08 1.07 -81.6 0 1 520.95 392.48&#xA;  L 507.11 392.48&#xA;  A 1.23 1.23 0.0 0 1 505.94 391.62&#xA;  L 477.10 299.31&#xA;  A 0.56 0.55 44.8 0 0 476.04 299.31&#xA;  L 447.75 391.83&#xA;  A 0.86 0.85 8.2 0 1 446.93 392.44&#xA;  L 432.12 392.44&#xA;  A 0.67 0.65 81.7 0 1 431.49 391.96&#xA;  L 394.23 266.74&#xA;  A 0.70 0.69 81.5 0 0 393.57 266.24&#xA;  L 348.05 266.24&#xA;  A 0.49 0.48 -90.0 0 0 347.57 266.73&#xA;  L 347.57 392.06&#xA;  A 0.55 0.54 90.0 0 1 347.03 392.61&#xA;  L 324.00 392.61&#xA;  A 0.39 0.39 0.0 0 1 323.61 392.22&#xA;  L 323.61 266.90&#xA;  A 0.67 0.67 0.0 0 0 322.94 266.23&#xA;  L 279.82 266.23&#xA;  A 0.49 0.48 90.0 0 1 279.34 265.74&#xA;  L 279.34 255.61&#xA;  A 0.50 0.50 0.0 0 1 279.84 255.11&#xA;  L 415.76 255.11&#xA;  A 0.47 0.47 0.0 0 1 416.21 255.45&#xA;  L 446.08 358.41&#xA;  A 0.29 0.29 0.0 0 0 446.54 358.56&#xA;  Q 446.61 358.51 446.78 358.31&#xA;  Q 446.92 358.15 446.97 357.87&#xA;  Q 447.49 355.10 448.52 351.72&#xA;  Q 460.91 310.85 477.07 255.89&#xA;  A 0.96 0.95 8.1 0 1 477.99 255.21&#xA;  L 487.47 255.21&#xA;  A 0.75 0.74 80.8 0 1 488.18 255.73&#xA;  L 520.02 357.64&#xA;  Z"></path>
<path fill="currentColor" d="&#xA;  M 558.98 325.85&#xA;  C 561.47 289.69 585.55 261.82 623.89 264.47&#xA;  C 662.24 267.11 682.25 298.03 679.76 334.19&#xA;  C 677.26 370.35 653.19 398.21 614.84 395.57&#xA;  C 576.50 392.92 556.48 362.01 558.98 325.85&#xA;  Z&#xA;  M 619.32 385.31&#xA;  C 636.59 385.30 648.75 373.15 653.29 357.11&#xA;  C 656.73 344.94 657.79 332.73 656.70 319.12&#xA;  C 654.95 297.46 644.02 274.55 619.26 274.56&#xA;  C 594.50 274.57 583.59 297.50 581.87 319.17&#xA;  C 580.79 332.77 581.87 344.98 585.33 357.15&#xA;  C 589.88 373.18 602.05 385.32 619.32 385.31&#xA;  Z"></path>
<ellipse fill="currentColor" cx="0.00" cy="0.00" transform="translate(714.30,309.31) rotate(-11.6)" rx="20.82" ry="20.44"></ellipse>
<ellipse fill="currentColor" cx="0.00" cy="0.00" transform="translate(733.74,392.61) rotate(-175.4)" rx="30.99" ry="30.33"></ellipse>
<path fill="currentColor" d="&#xA;  M 278.44 534.66&#xA;  Q 278.44 534.75 278.74 542.74&#xA;  C 279.28 557.06 285.03 569.47 297.90 576.64&#xA;  C 318.85 588.32 350.80 580.76 353.43 553.02&#xA;  C 355.21 534.30 341.24 523.98 325.82 517.43&#xA;  C 308.25 509.97 283.26 503.32 272.60 484.45&#xA;  Q 264.07 469.38 267.53 451.63&#xA;  C 271.45 431.51 288.32 419.19 307.79 415.84&#xA;  C 324.02 413.05 340.84 414.88 354.29 424.21&#xA;  C 365.12 431.71 371.50 444.79 372.43 457.79&#xA;  A 1.33 1.33 0.0 0 1 371.49 459.16&#xA;  L 354.89 464.35&#xA;  A 0.62 0.61 79.6 0 1 354.10 463.80&#xA;  C 353.64 457.09 352.75 450.52 349.80 444.90&#xA;  Q 340.82 427.77 320.32 427.05&#xA;  C 305.79 426.54 291.45 434.45 289.10 449.92&#xA;  C 286.23 468.87 301.81 479.25 317.04 485.22&#xA;  C 331.13 490.73 344.94 495.92 357.05 504.35&#xA;  C 375.37 517.09 381.02 537.36 374.80 558.21&#xA;  Q 367.91 581.32 343.36 589.91&#xA;  C 322.23 597.29 294.37 595.64 276.52 582.32&#xA;  Q 257.44 568.08 257.40 540.55&#xA;  A 0.75 0.75 0.0 0 1 257.95 539.83&#xA;  L 278.08 534.39&#xA;  A 0.29 0.29 0.0 0 1 278.44 534.66&#xA;  Z"></path>
<path fill="currentColor" d="&#xA;  M 738.19 438.45&#xA;  L 749.03 438.45&#xA;  A 0.32 0.32 0.0 0 1 749.33 438.86&#xA;  L 707.55 575.56&#xA;  A 0.32 0.32 0.0 0 1 707.24 575.79&#xA;  L 691.28 575.79&#xA;  A 0.32 0.32 0.0 0 1 690.97 575.57&#xA;  L 662.18 483.41&#xA;  A 0.32 0.32 0.0 0 0 661.57 483.41&#xA;  L 632.74 575.31&#xA;  A 0.32 0.32 0.0 0 1 632.44 575.53&#xA;  L 618.01 575.53&#xA;  A 0.32 0.32 0.0 0 1 617.70 575.30&#xA;  L 576.16 438.99&#xA;  A 0.32 0.32 0.0 0 1 576.46 438.58&#xA;  L 601.28 438.58&#xA;  A 0.32 0.32 0.0 0 1 601.59 438.81&#xA;  L 631.38 541.52&#xA;  A 0.32 0.32 0.0 0 0 631.99 541.52&#xA;  L 662.40 438.86&#xA;  A 0.32 0.32 0.0 0 1 662.71 438.63&#xA;  L 673.47 438.63&#xA;  A 0.32 0.32 0.0 0 1 673.78 438.86&#xA;  L 705.44 542.78&#xA;  A 0.32 0.32 0.0 0 0 706.06 542.78&#xA;  L 737.88 438.68&#xA;  A 0.32 0.32 0.0 0 1 738.19 438.45&#xA;  Z"></path>
<path fill="currentColor" d="&#xA;  M 398.29 578.40&#xA;  L 398.29 439.28&#xA;  A 0.49 0.49 0.0 0 1 398.78 438.79&#xA;  L 421.80 438.79&#xA;  A 0.49 0.49 0.0 0 1 422.29 439.28&#xA;  L 422.29 566.65&#xA;  A 0.49 0.49 0.0 0 0 422.78 567.14&#xA;  L 478.19 567.14&#xA;  A 0.49 0.49 0.0 0 1 478.68 567.63&#xA;  L 478.68 578.40&#xA;  A 0.49 0.49 0.0 0 1 478.19 578.89&#xA;  L 398.78 578.89&#xA;  A 0.49 0.49 0.0 0 1 398.29 578.40&#xA;  Z"></path>
<path fill="currentColor" d="&#xA;  M 463.88 500.55&#xA;  C 464.71 467.13 485.76 440.48 521.20 441.36&#xA;  C 556.64 442.24 576.34 469.92 575.51 503.33&#xA;  C 574.67 536.75 553.62 563.41 518.18 562.53&#xA;  C 482.74 561.64 463.04 533.97 463.88 500.55&#xA;  Z&#xA;  M 483.42 502.62&#xA;  C 483.78 525.52 492.32 553.94 520.47 553.50&#xA;  C 548.63 553.06 556.27 524.38 555.90 501.48&#xA;  C 555.54 478.58 547.01 450.16 518.85 450.60&#xA;  C 490.70 451.04 483.06 479.72 483.42 502.62&#xA;  Z"></path>
<path fill="currentColor" d="&#xA;  M 192.15 767.12&#xA;  A 0.42 0.42 0.0 0 1 191.73 766.70&#xA;  L 191.85 617.12&#xA;  A 0.30 0.30 0.0 0 1 192.15 616.82&#xA;  Q 206.60 616.75 225.81 616.68&#xA;  C 244.18 616.60 259.31 616.32 272.95 625.25&#xA;  Q 287.06 634.50 290.02 651.83&#xA;  C 291.54 660.74 290.72 670.91 286.69 679.34&#xA;  C 278.93 695.60 261.72 702.57 244.24 703.18&#xA;  Q 234.05 703.54 216.71 703.42&#xA;  A 0.52 0.52 0.0 0 0 216.19 703.94&#xA;  L 216.14 766.68&#xA;  A 0.46 0.46 0.0 0 1 215.67 767.14&#xA;  L 192.15 767.12&#xA;  Z&#xA;  M 216.28 629.10&#xA;  L 216.38 690.88&#xA;  A 0.36 0.36 0.0 0 0 216.74 691.24&#xA;  L 238.93 691.20&#xA;  A 27.99 27.36 -0.1 0 0 266.88 663.80&#xA;  L 266.86 656.02&#xA;  A 27.99 27.36 -0.1 0 0 238.83 628.70&#xA;  L 216.64 628.74&#xA;  A 0.36 0.36 0.0 0 0 216.28 629.10&#xA;  Z"></path>
<path fill="currentColor" d="&#xA;  M 388.12 684.51&#xA;  L 330.37 684.51&#xA;  A 0.55 0.55 0.0 0 0 329.82 685.06&#xA;  L 329.82 740.26&#xA;  A 0.55 0.55 0.0 0 0 330.37 740.81&#xA;  L 393.09 740.81&#xA;  A 0.55 0.55 0.0 0 1 393.64 741.36&#xA;  L 393.64 751.74&#xA;  A 0.55 0.55 0.0 0 1 393.09 752.29&#xA;  L 306.59 752.29&#xA;  A 0.55 0.55 0.0 0 1 306.04 751.74&#xA;  L 306.04 617.28&#xA;  A 0.55 0.55 0.0 0 1 306.59 616.73&#xA;  L 392.71 616.73&#xA;  A 0.55 0.55 0.0 0 1 393.26 617.28&#xA;  L 393.26 627.96&#xA;  A 0.55 0.55 0.0 0 1 392.71 628.51&#xA;  L 330.35 628.51&#xA;  A 0.55 0.55 0.0 0 0 329.80 629.06&#xA;  L 329.80 672.74&#xA;  A 0.55 0.55 0.0 0 0 330.35 673.29&#xA;  L 388.12 673.29&#xA;  A 0.55 0.55 0.0 0 1 388.67 673.84&#xA;  L 388.67 683.96&#xA;  A 0.55 0.55 0.0 0 1 388.12 684.51&#xA;  Z"></path>
<path fill="currentColor" d="&#xA;  M 541.87 766.89&#xA;  A 0.42 0.42 0.0 0 1 541.45 766.47&#xA;  L 541.45 617.19&#xA;  A 0.30 0.30 0.0 0 1 541.75 616.89&#xA;  Q 556.17 616.81 575.34 616.72&#xA;  C 593.68 616.63 608.78 616.33 622.40 625.24&#xA;  Q 636.49 634.46 639.46 651.75&#xA;  C 640.98 660.64 640.17 670.79 636.16 679.21&#xA;  C 628.42 695.44 611.25 702.41 593.81 703.04&#xA;  Q 583.64 703.40 566.33 703.30&#xA;  A 0.52 0.52 0.0 0 0 565.81 703.82&#xA;  L 565.81 766.43&#xA;  A 0.46 0.46 0.0 0 1 565.35 766.89&#xA;  L 541.87 766.89&#xA;  Z&#xA;  M 565.80 629.33&#xA;  L 565.80 690.74&#xA;  A 0.44 0.44 0.0 0 0 566.23 691.18&#xA;  Q 578.82 691.35 589.24 690.80&#xA;  C 600.94 690.17 611.71 684.65 614.74 672.71&#xA;  Q 616.39 666.22 616.26 658.99&#xA;  C 615.95 641.90 607.35 630.07 588.98 628.73&#xA;  Q 585.32 628.47 566.42 628.71&#xA;  A 0.62 0.62 0.0 0 0 565.80 629.33&#xA;  Z"></path>
<path fill="currentColor" d="&#xA;  M 679.96 740.73&#xA;  L 730.90 740.73&#xA;  A 0.43 0.43 0.0 0 1 731.33 741.16&#xA;  L 731.33 751.83&#xA;  A 0.43 0.43 0.0 0 1 730.90 752.26&#xA;  L 655.67 752.26&#xA;  A 0.43 0.43 0.0 0 1 655.24 751.83&#xA;  L 655.24 617.26&#xA;  A 0.43 0.43 0.0 0 1 655.67 616.83&#xA;  L 679.10 616.83&#xA;  A 0.43 0.43 0.0 0 1 679.53 617.26&#xA;  L 679.53 740.30&#xA;  A 0.43 0.43 0.0 0 0 679.96 740.73&#xA;  Z"></path>
<path fill="currentColor" d="&#xA;  M 826.33 673.78&#xA;  L 826.33 683.97&#xA;  A 0.53 0.53 0.0 0 1 825.80 684.50&#xA;  L 768.21 684.50&#xA;  A 0.53 0.53 0.0 0 0 767.68 685.03&#xA;  L 767.68 740.34&#xA;  A 0.53 0.53 0.0 0 0 768.21 740.87&#xA;  L 831.52 740.87&#xA;  A 0.53 0.53 0.0 0 1 832.05 741.40&#xA;  L 832.05 751.80&#xA;  A 0.53 0.53 0.0 0 1 831.52 752.33&#xA;  L 743.74 752.33&#xA;  A 0.53 0.53 0.0 0 1 743.21 751.80&#xA;  L 743.21 617.29&#xA;  A 0.53 0.53 0.0 0 1 743.74 616.76&#xA;  L 831.42 616.76&#xA;  A 0.53 0.53 0.0 0 1 831.95 617.29&#xA;  L 831.95 627.95&#xA;  A 0.53 0.53 0.0 0 1 831.42 628.48&#xA;  L 768.20 628.48&#xA;  A 0.53 0.53 0.0 0 0 767.67 629.01&#xA;  L 767.67 672.72&#xA;  A 0.53 0.53 0.0 0 0 768.20 673.25&#xA;  L 825.80 673.25&#xA;  A 0.53 0.53 0.0 0 1 826.33 673.78&#xA;  Z"></path>
<path fill="currentColor" d="&#xA;  M 467.64 617.83&#xA;  C 506.31 619.00 527.65 649.32 526.55 685.79&#xA;  C 525.45 722.26 502.31 751.23 463.64 750.06&#xA;  C 424.96 748.89 403.62 718.57 404.73 682.10&#xA;  C 405.83 645.63 428.96 616.66 467.64 617.83&#xA;  Z&#xA;  M 427.91 683.68&#xA;  C 427.86 697.31 429.88 711.06 437.04 722.92&#xA;  C 443.18 733.10 453.29 739.19 465.52 739.23&#xA;  C 477.74 739.27 487.90 733.26 494.11 723.12&#xA;  C 501.35 711.31 503.46 697.57 503.51 683.94&#xA;  C 503.56 670.32 501.54 656.56 494.38 644.70&#xA;  C 488.24 634.52 478.13 628.44 465.90 628.39&#xA;  C 453.68 628.35 443.52 634.36 437.31 644.50&#xA;  C 430.07 656.31 427.96 670.05 427.91 683.68&#xA;  Z"></path>
</svg>