<?xml version="1.0" encoding="UTF-8" standalone="no"?>
<!DOCTYPE svg PUBLIC "-//W3C//DTD SVG 1.1//EN" "http://www.w3.org/Graphics/SVG/1.1/DTD/svg11.dtd">
<svg xmlns="http://www.w3.org/2000/svg" version="1.1" viewBox="0.00 0.00 1024.00 1024.00">
<g stroke-width="2.00" fill="none" stroke-linecap="butt">
<path stroke="#828181" vector-effect="non-scaling-stroke" d="
  M 520.02 357.64
  L 488.18 255.73
  A 0.75 0.74 80.8 0 0 487.47 255.21
  L 477.99 255.21
  A 0.96 0.95 8.1 0 0 477.07 255.89
  Q 460.91 310.85 448.52 351.72
  Q 447.49 355.10 446.97 357.87
  Q 446.92 358.15 446.78 358.31
  Q 446.61 358.51 446.54 358.56
  A 0.29 0.29 0.0 0 1 446.08 358.41
  L 416.21 255.45
  A 0.47 0.47 0.0 0 0 415.76 255.11
  L 279.84 255.11
  A 0.50 0.50 0.0 0 0 279.34 255.61
  L 279.34 265.74
  A 0.49 0.48 90.0 0 0 279.82 266.23
  L 322.94 266.23
  A 0.67 0.67 0.0 0 1 323.61 266.90
  L 323.61 392.22
  A 0.39 0.39 0.0 0 0 324.00 392.61
  L 347.03 392.61
  A 0.55 0.54 -90.0 0 0 347.57 392.06
  L 347.57 266.73
  A 0.49 0.48 -90.0 0 1 348.05 266.24
  L 393.57 266.24
  A 0.70 0.69 81.5 0 1 394.23 266.74
  L 431.49 391.96
  A 0.67 0.65 81.7 0 0 432.12 392.44
  L 446.93 392.44
  A 0.86 0.85 8.2 0 0 447.75 391.83
  L 476.04 299.31
  A 0.56 0.55 44.8 0 1 477.10 299.31
  L 505.94 391.62
  A 1.23 1.23 0.0 0 0 507.11 392.48
  L 520.95 392.48
  A 1.08 1.07 -81.6 0 0 521.98 391.71
  L 562.15 256.11
  A 0.71 0.71 0.0 0 0 561.47 255.20
  L 551.79 255.20
  A 0.37 0.37 0.0 0 0 551.44 255.46
  L 520.20 357.64
  A 0.09 0.09 0.0 0 1 520.02 357.64"
/>
<path stroke="#828181" vector-effect="non-scaling-stroke" d="
  M 558.98 325.85
  C 556.48 362.01 576.50 392.92 614.84 395.57
  C 653.19 398.21 677.26 370.35 679.76 334.19
  C 682.25 298.03 662.24 267.11 623.89 264.47
  C 585.55 261.82 561.47 289.69 558.98 325.85"
/>
<path stroke="#828181" vector-effect="non-scaling-stroke" d="
  M 734.6948 305.1236
  A 20.82 20.44 -11.6 0 0 710.1900 289.2875
  A 20.82 20.44 -11.6 0 0 693.9052 313.4964
  A 20.82 20.44 -11.6 0 0 718.4100 329.3325
  A 20.82 20.44 -11.6 0 0 734.6948 305.1236"
/>
<path stroke="#828181" vector-effect="non-scaling-stroke" d="
  M 702.8498 390.1246
  A 30.99 30.33 -175.4 0 0 731.3076 422.8423
  A 30.99 30.33 -175.4 0 0 764.6302 395.0954
  A 30.99 30.33 -175.4 0 0 736.1724 362.3777
  A 30.99 30.33 -175.4 0 0 702.8498 390.1246"
/>
<path stroke="#828181" vector-effect="non-scaling-stroke" d="
  M 278.44 534.66
  A 0.29 0.29 0.0 0 0 278.08 534.39
  L 257.95 539.83
  A 0.75 0.75 0.0 0 0 257.40 540.55
  Q 257.44 568.08 276.52 582.32
  C 294.37 595.64 322.23 597.29 343.36 589.91
  Q 367.91 581.32 374.80 558.21
  C 381.02 537.36 375.37 517.09 357.05 504.35
  C 344.94 495.92 331.13 490.73 317.04 485.22
  C 301.81 479.25 286.23 468.87 289.10 449.92
  C 291.45 434.45 305.79 426.54 320.32 427.05
  Q 340.82 427.77 349.80 444.90
  C 352.75 450.52 353.64 457.09 354.10 463.80
  A 0.62 0.61 79.6 0 0 354.89 464.35
  L 371.49 459.16
  A 1.33 1.33 0.0 0 0 372.43 457.79
  C 371.50 444.79 365.12 431.71 354.29 424.21
  C 340.84 414.88 324.02 413.05 307.79 415.84
  C 288.32 419.19 271.45 431.51 267.53 451.63
  Q 264.07 469.38 272.60 484.45
  C 283.26 503.32 308.25 509.97 325.82 517.43
  C 341.24 523.98 355.21 534.30 353.43 553.02
  C 350.80 580.76 318.85 588.32 297.90 576.64
  C 285.03 569.47 279.28 557.06 278.74 542.74
  Q 278.44 534.75 278.44 534.66"
/>
<path stroke="#828181" vector-effect="non-scaling-stroke" d="
  M 738.19 438.45
  A 0.32 0.32 0.0 0 0 737.88 438.68
  L 706.06 542.78
  A 0.32 0.32 0.0 0 1 705.44 542.78
  L 673.78 438.86
  A 0.32 0.32 0.0 0 0 673.47 438.63
  L 662.71 438.63
  A 0.32 0.32 0.0 0 0 662.40 438.86
  L 631.99 541.52
  A 0.32 0.32 0.0 0 1 631.38 541.52
  L 601.59 438.81
  A 0.32 0.32 0.0 0 0 601.28 438.58
  L 576.46 438.58
  A 0.32 0.32 0.0 0 0 576.16 438.99
  L 617.70 575.30
  A 0.32 0.32 0.0 0 0 618.01 575.53
  L 632.44 575.53
  A 0.32 0.32 0.0 0 0 632.74 575.31
  L 661.57 483.41
  A 0.32 0.32 0.0 0 1 662.18 483.41
  L 690.97 575.57
  A 0.32 0.32 0.0 0 0 691.28 575.79
  L 707.24 575.79
  A 0.32 0.32 0.0 0 0 707.55 575.56
  L 749.33 438.86
  A 0.32 0.32 0.0 0 0 749.03 438.45
  L 738.19 438.45"
/>
<path stroke="#828181" vector-effect="non-scaling-stroke" d="
  M 398.29 578.40
  A 0.49 0.49 0.0 0 0 398.78 578.89
  L 478.19 578.89
  A 0.49 0.49 0.0 0 0 478.68 578.40
  L 478.68 567.63
  A 0.49 0.49 0.0 0 0 478.19 567.14
  L 422.78 567.14
  A 0.49 0.49 0.0 0 1 422.29 566.65
  L 422.29 439.28
  A 0.49 0.49 0.0 0 0 421.80 438.79
  L 398.78 438.79
  A 0.49 0.49 0.0 0 0 398.29 439.28
  L 398.29 578.40"
/>
<path stroke="#828181" vector-effect="non-scaling-stroke" d="
  M 463.88 500.55
  C 463.04 533.97 482.74 561.64 518.18 562.53
  C 553.62 563.41 574.67 536.75 575.51 503.33
  C 576.34 469.92 556.64 442.24 521.20 441.36
  C 485.76 440.48 464.71 467.13 463.88 500.55"
/>
<path stroke="#828181" vector-effect="non-scaling-stroke" d="
  M 192.15 767.12
  L 215.67 767.14
  A 0.46 0.46 0.0 0 0 216.14 766.68
  L 216.19 703.94
  A 0.52 0.52 0.0 0 1 216.71 703.42
  Q 234.05 703.54 244.24 703.18
  C 261.72 702.57 278.93 695.60 286.69 679.34
  C 290.72 670.91 291.54 660.74 290.02 651.83
  Q 287.06 634.50 272.95 625.25
  C 259.31 616.32 244.18 616.60 225.81 616.68
  Q 206.60 616.75 192.15 616.82
  A 0.30 0.30 0.0 0 0 191.85 617.12
  L 191.73 766.70
  A 0.42 0.42 0.0 0 0 192.15 767.12"
/>
<path stroke="#828181" vector-effect="non-scaling-stroke" d="
  M 388.12 684.51
  A 0.55 0.55 0.0 0 0 388.67 683.96
  L 388.67 673.84
  A 0.55 0.55 0.0 0 0 388.12 673.29
  L 330.35 673.29
  A 0.55 0.55 0.0 0 1 329.80 672.74
  L 329.80 629.06
  A 0.55 0.55 0.0 0 1 330.35 628.51
  L 392.71 628.51
  A 0.55 0.55 0.0 0 0 393.26 627.96
  L 393.26 617.28
  A 0.55 0.55 0.0 0 0 392.71 616.73
  L 306.59 616.73
  A 0.55 0.55 0.0 0 0 306.04 617.28
  L 306.04 751.74
  A 0.55 0.55 0.0 0 0 306.59 752.29
  L 393.09 752.29
  A 0.55 0.55 0.0 0 0 393.64 751.74
  L 393.64 741.36
  A 0.55 0.55 0.0 0 0 393.09 740.81
  L 330.37 740.81
  A 0.55 0.55 0.0 0 1 329.82 740.26
  L 329.82 685.06
  A 0.55 0.55 0.0 0 1 330.37 684.51
  L 388.12 684.51"
/>
<path stroke="#828181" vector-effect="non-scaling-stroke" d="
  M 541.87 766.89
  L 565.35 766.89
  A 0.46 0.46 0.0 0 0 565.81 766.43
  L 565.81 703.82
  A 0.52 0.52 0.0 0 1 566.33 703.30
  Q 583.64 703.40 593.81 703.04
  C 611.25 702.41 628.42 695.44 636.16 679.21
  C 640.17 670.79 640.98 660.64 639.46 651.75
  Q 636.49 634.46 622.40 625.24
  C 608.78 616.33 593.68 616.63 575.34 616.72
  Q 556.17 616.81 541.75 616.89
  A 0.30 0.30 0.0 0 0 541.45 617.19
  L 541.45 766.47
  A 0.42 0.42 0.0 0 0 541.87 766.89"
/>
<path stroke="#828181" vector-effect="non-scaling-stroke" d="
  M 679.96 740.73
  A 0.43 0.43 0.0 0 1 679.53 740.30
  L 679.53 617.26
  A 0.43 0.43 0.0 0 0 679.10 616.83
  L 655.67 616.83
  A 0.43 0.43 0.0 0 0 655.24 617.26
  L 655.24 751.83
  A 0.43 0.43 0.0 0 0 655.67 752.26
  L 730.90 752.26
  A 0.43 0.43 0.0 0 0 731.33 751.83
  L 731.33 741.16
  A 0.43 0.43 0.0 0 0 730.90 740.73
  L 679.96 740.73"
/>
<path stroke="#828181" vector-effect="non-scaling-stroke" d="
  M 826.33 673.78
  A 0.53 0.53 0.0 0 0 825.80 673.25
  L 768.20 673.25
  A 0.53 0.53 0.0 0 1 767.67 672.72
  L 767.67 629.01
  A 0.53 0.53 0.0 0 1 768.20 628.48
  L 831.42 628.48
  A 0.53 0.53 0.0 0 0 831.95 627.95
  L 831.95 617.29
  A 0.53 0.53 0.0 0 0 831.42 616.76
  L 743.74 616.76
  A 0.53 0.53 0.0 0 0 743.21 617.29
  L 743.21 751.80
  A 0.53 0.53 0.0 0 0 743.74 752.33
  L 831.52 752.33
  A 0.53 0.53 0.0 0 0 832.05 751.80
  L 832.05 741.40
  A 0.53 0.53 0.0 0 0 831.52 740.87
  L 768.21 740.87
  A 0.53 0.53 0.0 0 1 767.68 740.34
  L 767.68 685.03
  A 0.53 0.53 0.0 0 1 768.21 684.50
  L 825.80 684.50
  A 0.53 0.53 0.0 0 0 826.33 683.97
  L 826.33 673.78"
/>
<path stroke="#828181" vector-effect="non-scaling-stroke" d="
  M 404.73 682.10
  C 403.62 718.57 424.96 748.89 463.64 750.06
  C 502.31 751.23 525.45 722.26 526.55 685.79
  C 527.65 649.32 506.31 619.00 467.64 617.83
  C 428.96 616.66 405.83 645.63 404.73 682.10"
/>
<path stroke="#828181" vector-effect="non-scaling-stroke" d="
  M 619.32 385.31
  C 636.59 385.30 648.75 373.15 653.29 357.11
  C 656.73 344.94 657.79 332.73 656.70 319.12
  C 654.95 297.46 644.02 274.55 619.26 274.56
  C 594.50 274.57 583.59 297.50 581.87 319.17
  C 580.79 332.77 581.87 344.98 585.33 357.15
  C 589.88 373.18 602.05 385.32 619.32 385.31"
/>
<path stroke="#828181" vector-effect="non-scaling-stroke" d="
  M 483.42 502.62
  C 483.78 525.52 492.32 553.94 520.47 553.50
  C 548.63 553.06 556.27 524.38 555.90 501.48
  C 555.54 478.58 547.01 450.16 518.85 450.60
  C 490.70 451.04 483.06 479.72 483.42 502.62"
/>
<path stroke="#828181" vector-effect="non-scaling-stroke" d="
  M 216.28 629.10
  L 216.38 690.88
  A 0.36 0.36 0.0 0 0 216.74 691.24
  L 238.93 691.20
  A 27.99 27.36 -0.1 0 0 266.88 663.80
  L 266.86 656.02
  A 27.99 27.36 -0.1 0 0 238.83 628.70
  L 216.64 628.74
  A 0.36 0.36 0.0 0 0 216.28 629.10"
/>
<path stroke="#828181" vector-effect="non-scaling-stroke" d="
  M 565.80 629.33
  L 565.80 690.74
  A 0.44 0.44 0.0 0 0 566.23 691.18
  Q 578.82 691.35 589.24 690.80
  C 600.94 690.17 611.71 684.65 614.74 672.71
  Q 616.39 666.22 616.26 658.99
  C 615.95 641.90 607.35 630.07 588.98 628.73
  Q 585.32 628.47 566.42 628.71
  A 0.62 0.62 0.0 0 0 565.80 629.33"
/>
<path stroke="#828181" vector-effect="non-scaling-stroke" d="
  M 427.91 683.68
  C 427.86 697.31 429.88 711.06 437.04 722.92
  C 443.18 733.10 453.29 739.19 465.52 739.23
  C 477.74 739.27 487.90 733.26 494.11 723.12
  C 501.35 711.31 503.46 697.57 503.51 683.94
  C 503.56 670.32 501.54 656.56 494.38 644.70
  C 488.24 634.52 478.13 628.44 465.90 628.39
  C 453.68 628.35 443.52 634.36 437.31 644.50
  C 430.07 656.31 427.96 670.05 427.91 683.68"
/>
</g>
<path fill="#060606" d="
  M 1024.00 0.00
  L 1024.00 1024.00
  L 0.00 1024.00
  L 0.00 0.00
  L 1024.00 0.00
  Z
  M 520.02 357.64
  L 488.18 255.73
  A 0.75 0.74 80.8 0 0 487.47 255.21
  L 477.99 255.21
  A 0.96 0.95 8.1 0 0 477.07 255.89
  Q 460.91 310.85 448.52 351.72
  Q 447.49 355.10 446.97 357.87
  Q 446.92 358.15 446.78 358.31
  Q 446.61 358.51 446.54 358.56
  A 0.29 0.29 0.0 0 1 446.08 358.41
  L 416.21 255.45
  A 0.47 0.47 0.0 0 0 415.76 255.11
  L 279.84 255.11
  A 0.50 0.50 0.0 0 0 279.34 255.61
  L 279.34 265.74
  A 0.49 0.48 90.0 0 0 279.82 266.23
  L 322.94 266.23
  A 0.67 0.67 0.0 0 1 323.61 266.90
  L 323.61 392.22
  A 0.39 0.39 0.0 0 0 324.00 392.61
  L 347.03 392.61
  A 0.55 0.54 -90.0 0 0 347.57 392.06
  L 347.57 266.73
  A 0.49 0.48 -90.0 0 1 348.05 266.24
  L 393.57 266.24
  A 0.70 0.69 81.5 0 1 394.23 266.74
  L 431.49 391.96
  A 0.67 0.65 81.7 0 0 432.12 392.44
  L 446.93 392.44
  A 0.86 0.85 8.2 0 0 447.75 391.83
  L 476.04 299.31
  A 0.56 0.55 44.8 0 1 477.10 299.31
  L 505.94 391.62
  A 1.23 1.23 0.0 0 0 507.11 392.48
  L 520.95 392.48
  A 1.08 1.07 -81.6 0 0 521.98 391.71
  L 562.15 256.11
  A 0.71 0.71 0.0 0 0 561.47 255.20
  L 551.79 255.20
  A 0.37 0.37 0.0 0 0 551.44 255.46
  L 520.20 357.64
  A 0.09 0.09 0.0 0 1 520.02 357.64
  Z
  M 558.98 325.85
  C 556.48 362.01 576.50 392.92 614.84 395.57
  C 653.19 398.21 677.26 370.35 679.76 334.19
  C 682.25 298.03 662.24 267.11 623.89 264.47
  C 585.55 261.82 561.47 289.69 558.98 325.85
  Z
  M 734.6948 305.1236
  A 20.82 20.44 -11.6 0 0 710.1900 289.2875
  A 20.82 20.44 -11.6 0 0 693.9052 313.4964
  A 20.82 20.44 -11.6 0 0 718.4100 329.3325
  A 20.82 20.44 -11.6 0 0 734.6948 305.1236
  Z
  M 702.8498 390.1246
  A 30.99 30.33 -175.4 0 0 731.3076 422.8423
  A 30.99 30.33 -175.4 0 0 764.6302 395.0954
  A 30.99 30.33 -175.4 0 0 736.1724 362.3777
  A 30.99 30.33 -175.4 0 0 702.8498 390.1246
  Z
  M 278.44 534.66
  A 0.29 0.29 0.0 0 0 278.08 534.39
  L 257.95 539.83
  A 0.75 0.75 0.0 0 0 257.40 540.55
  Q 257.44 568.08 276.52 582.32
  C 294.37 595.64 322.23 597.29 343.36 589.91
  Q 367.91 581.32 374.80 558.21
  C 381.02 537.36 375.37 517.09 357.05 504.35
  C 344.94 495.92 331.13 490.73 317.04 485.22
  C 301.81 479.25 286.23 468.87 289.10 449.92
  C 291.45 434.45 305.79 426.54 320.32 427.05
  Q 340.82 427.77 349.80 444.90
  C 352.75 450.52 353.64 457.09 354.10 463.80
  A 0.62 0.61 79.6 0 0 354.89 464.35
  L 371.49 459.16
  A 1.33 1.33 0.0 0 0 372.43 457.79
  C 371.50 444.79 365.12 431.71 354.29 424.21
  C 340.84 414.88 324.02 413.05 307.79 415.84
  C 288.32 419.19 271.45 431.51 267.53 451.63
  Q 264.07 469.38 272.60 484.45
  C 283.26 503.32 308.25 509.97 325.82 517.43
  C 341.24 523.98 355.21 534.30 353.43 553.02
  C 350.80 580.76 318.85 588.32 297.90 576.64
  C 285.03 569.47 279.28 557.06 278.74 542.74
  Q 278.44 534.75 278.44 534.66
  Z
  M 738.19 438.45
  A 0.32 0.32 0.0 0 0 737.88 438.68
  L 706.06 542.78
  A 0.32 0.32 0.0 0 1 705.44 542.78
  L 673.78 438.86
  A 0.32 0.32 0.0 0 0 673.47 438.63
  L 662.71 438.63
  A 0.32 0.32 0.0 0 0 662.40 438.86
  L 631.99 541.52
  A 0.32 0.32 0.0 0 1 631.38 541.52
  L 601.59 438.81
  A 0.32 0.32 0.0 0 0 601.28 438.58
  L 576.46 438.58
  A 0.32 0.32 0.0 0 0 576.16 438.99
  L 617.70 575.30
  A 0.32 0.32 0.0 0 0 618.01 575.53
  L 632.44 575.53
  A 0.32 0.32 0.0 0 0 632.74 575.31
  L 661.57 483.41
  A 0.32 0.32 0.0 0 1 662.18 483.41
  L 690.97 575.57
  A 0.32 0.32 0.0 0 0 691.28 575.79
  L 707.24 575.79
  A 0.32 0.32 0.0 0 0 707.55 575.56
  L 749.33 438.86
  A 0.32 0.32 0.0 0 0 749.03 438.45
  L 738.19 438.45
  Z
  M 398.29 578.40
  A 0.49 0.49 0.0 0 0 398.78 578.89
  L 478.19 578.89
  A 0.49 0.49 0.0 0 0 478.68 578.40
  L 478.68 567.63
  A 0.49 0.49 0.0 0 0 478.19 567.14
  L 422.78 567.14
  A 0.49 0.49 0.0 0 1 422.29 566.65
  L 422.29 439.28
  A 0.49 0.49 0.0 0 0 421.80 438.79
  L 398.78 438.79
  A 0.49 0.49 0.0 0 0 398.29 439.28
  L 398.29 578.40
  Z
  M 463.88 500.55
  C 463.04 533.97 482.74 561.64 518.18 562.53
  C 553.62 563.41 574.67 536.75 575.51 503.33
  C 576.34 469.92 556.64 442.24 521.20 441.36
  C 485.76 440.48 464.71 467.13 463.88 500.55
  Z
  M 192.15 767.12
  L 215.67 767.14
  A 0.46 0.46 0.0 0 0 216.14 766.68
  L 216.19 703.94
  A 0.52 0.52 0.0 0 1 216.71 703.42
  Q 234.05 703.54 244.24 703.18
  C 261.72 702.57 278.93 695.60 286.69 679.34
  C 290.72 670.91 291.54 660.74 290.02 651.83
  Q 287.06 634.50 272.95 625.25
  C 259.31 616.32 244.18 616.60 225.81 616.68
  Q 206.60 616.75 192.15 616.82
  A 0.30 0.30 0.0 0 0 191.85 617.12
  L 191.73 766.70
  A 0.42 0.42 0.0 0 0 192.15 767.12
  Z
  M 388.12 684.51
  A 0.55 0.55 0.0 0 0 388.67 683.96
  L 388.67 673.84
  A 0.55 0.55 0.0 0 0 388.12 673.29
  L 330.35 673.29
  A 0.55 0.55 0.0 0 1 329.80 672.74
  L 329.80 629.06
  A 0.55 0.55 0.0 0 1 330.35 628.51
  L 392.71 628.51
  A 0.55 0.55 0.0 0 0 393.26 627.96
  L 393.26 617.28
  A 0.55 0.55 0.0 0 0 392.71 616.73
  L 306.59 616.73
  A 0.55 0.55 0.0 0 0 306.04 617.28
  L 306.04 751.74
  A 0.55 0.55 0.0 0 0 306.59 752.29
  L 393.09 752.29
  A 0.55 0.55 0.0 0 0 393.64 751.74
  L 393.64 741.36
  A 0.55 0.55 0.0 0 0 393.09 740.81
  L 330.37 740.81
  A 0.55 0.55 0.0 0 1 329.82 740.26
  L 329.82 685.06
  A 0.55 0.55 0.0 0 1 330.37 684.51
  L 388.12 684.51
  Z
  M 541.87 766.89
  L 565.35 766.89
  A 0.46 0.46 0.0 0 0 565.81 766.43
  L 565.81 703.82
  A 0.52 0.52 0.0 0 1 566.33 703.30
  Q 583.64 703.40 593.81 703.04
  C 611.25 702.41 628.42 695.44 636.16 679.21
  C 640.17 670.79 640.98 660.64 639.46 651.75
  Q 636.49 634.46 622.40 625.24
  C 608.78 616.33 593.68 616.63 575.34 616.72
  Q 556.17 616.81 541.75 616.89
  A 0.30 0.30 0.0 0 0 541.45 617.19
  L 541.45 766.47
  A 0.42 0.42 0.0 0 0 541.87 766.89
  Z
  M 679.96 740.73
  A 0.43 0.43 0.0 0 1 679.53 740.30
  L 679.53 617.26
  A 0.43 0.43 0.0 0 0 679.10 616.83
  L 655.67 616.83
  A 0.43 0.43 0.0 0 0 655.24 617.26
  L 655.24 751.83
  A 0.43 0.43 0.0 0 0 655.67 752.26
  L 730.90 752.26
  A 0.43 0.43 0.0 0 0 731.33 751.83
  L 731.33 741.16
  A 0.43 0.43 0.0 0 0 730.90 740.73
  L 679.96 740.73
  Z
  M 826.33 673.78
  A 0.53 0.53 0.0 0 0 825.80 673.25
  L 768.20 673.25
  A 0.53 0.53 0.0 0 1 767.67 672.72
  L 767.67 629.01
  A 0.53 0.53 0.0 0 1 768.20 628.48
  L 831.42 628.48
  A 0.53 0.53 0.0 0 0 831.95 627.95
  L 831.95 617.29
  A 0.53 0.53 0.0 0 0 831.42 616.76
  L 743.74 616.76
  A 0.53 0.53 0.0 0 0 743.21 617.29
  L 743.21 751.80
  A 0.53 0.53 0.0 0 0 743.74 752.33
  L 831.52 752.33
  A 0.53 0.53 0.0 0 0 832.05 751.80
  L 832.05 741.40
  A 0.53 0.53 0.0 0 0 831.52 740.87
  L 768.21 740.87
  A 0.53 0.53 0.0 0 1 767.68 740.34
  L 767.68 685.03
  A 0.53 0.53 0.0 0 1 768.21 684.50
  L 825.80 684.50
  A 0.53 0.53 0.0 0 0 826.33 683.97
  L 826.33 673.78
  Z
  M 404.73 682.10
  C 403.62 718.57 424.96 748.89 463.64 750.06
  C 502.31 751.23 525.45 722.26 526.55 685.79
  C 527.65 649.32 506.31 619.00 467.64 617.83
  C 428.96 616.66 405.83 645.63 404.73 682.10
  Z"
/>
<path fill="#fdfcfc" d="
  M 520.02 357.64
  A 0.09 0.09 0.0 0 0 520.20 357.64
  L 551.44 255.46
  A 0.37 0.37 0.0 0 1 551.79 255.20
  L 561.47 255.20
  A 0.71 0.71 0.0 0 1 562.15 256.11
  L 521.98 391.71
  A 1.08 1.07 -81.6 0 1 520.95 392.48
  L 507.11 392.48
  A 1.23 1.23 0.0 0 1 505.94 391.62
  L 477.10 299.31
  A 0.56 0.55 44.8 0 0 476.04 299.31
  L 447.75 391.83
  A 0.86 0.85 8.2 0 1 446.93 392.44
  L 432.12 392.44
  A 0.67 0.65 81.7 0 1 431.49 391.96
  L 394.23 266.74
  A 0.70 0.69 81.5 0 0 393.57 266.24
  L 348.05 266.24
  A 0.49 0.48 -90.0 0 0 347.57 266.73
  L 347.57 392.06
  A 0.55 0.54 90.0 0 1 347.03 392.61
  L 324.00 392.61
  A 0.39 0.39 0.0 0 1 323.61 392.22
  L 323.61 266.90
  A 0.67 0.67 0.0 0 0 322.94 266.23
  L 279.82 266.23
  A 0.49 0.48 90.0 0 1 279.34 265.74
  L 279.34 255.61
  A 0.50 0.50 0.0 0 1 279.84 255.11
  L 415.76 255.11
  A 0.47 0.47 0.0 0 1 416.21 255.45
  L 446.08 358.41
  A 0.29 0.29 0.0 0 0 446.54 358.56
  Q 446.61 358.51 446.78 358.31
  Q 446.92 358.15 446.97 357.87
  Q 447.49 355.10 448.52 351.72
  Q 460.91 310.85 477.07 255.89
  A 0.96 0.95 8.1 0 1 477.99 255.21
  L 487.47 255.21
  A 0.75 0.74 80.8 0 1 488.18 255.73
  L 520.02 357.64
  Z"
/>
<path fill="#fdfcfc" d="
  M 558.98 325.85
  C 561.47 289.69 585.55 261.82 623.89 264.47
  C 662.24 267.11 682.25 298.03 679.76 334.19
  C 677.26 370.35 653.19 398.21 614.84 395.57
  C 576.50 392.92 556.48 362.01 558.98 325.85
  Z
  M 619.32 385.31
  C 636.59 385.30 648.75 373.15 653.29 357.11
  C 656.73 344.94 657.79 332.73 656.70 319.12
  C 654.95 297.46 644.02 274.55 619.26 274.56
  C 594.50 274.57 583.59 297.50 581.87 319.17
  C 580.79 332.77 581.87 344.98 585.33 357.15
  C 589.88 373.18 602.05 385.32 619.32 385.31
  Z"
/>
<path fill="#060606" d="
  M 619.26 274.56
  C 644.02 274.55 654.95 297.46 656.70 319.12
  C 657.79 332.73 656.73 344.94 653.29 357.11
  C 648.75 373.15 636.59 385.30 619.32 385.31
  C 602.05 385.32 589.88 373.18 585.33 357.15
  C 581.87 344.98 580.79 332.77 581.87 319.17
  C 583.59 297.50 594.50 274.57 619.26 274.56
  Z"
/>
<ellipse fill="#fdfcfc" cx="0.00" cy="0.00" transform="translate(714.30,309.31) rotate(-11.6)" rx="20.82" ry="20.44"/>
<ellipse fill="#fdfcfc" cx="0.00" cy="0.00" transform="translate(733.74,392.61) rotate(-175.4)" rx="30.99" ry="30.33"/>
<path fill="#fdfcfc" d="
  M 278.44 534.66
  Q 278.44 534.75 278.74 542.74
  C 279.28 557.06 285.03 569.47 297.90 576.64
  C 318.85 588.32 350.80 580.76 353.43 553.02
  C 355.21 534.30 341.24 523.98 325.82 517.43
  C 308.25 509.97 283.26 503.32 272.60 484.45
  Q 264.07 469.38 267.53 451.63
  C 271.45 431.51 288.32 419.19 307.79 415.84
  C 324.02 413.05 340.84 414.88 354.29 424.21
  C 365.12 431.71 371.50 444.79 372.43 457.79
  A 1.33 1.33 0.0 0 1 371.49 459.16
  L 354.89 464.35
  A 0.62 0.61 79.6 0 1 354.10 463.80
  C 353.64 457.09 352.75 450.52 349.80 444.90
  Q 340.82 427.77 320.32 427.05
  C 305.79 426.54 291.45 434.45 289.10 449.92
  C 286.23 468.87 301.81 479.25 317.04 485.22
  C 331.13 490.73 344.94 495.92 357.05 504.35
  C 375.37 517.09 381.02 537.36 374.80 558.21
  Q 367.91 581.32 343.36 589.91
  C 322.23 597.29 294.37 595.64 276.52 582.32
  Q 257.44 568.08 257.40 540.55
  A 0.75 0.75 0.0 0 1 257.95 539.83
  L 278.08 534.39
  A 0.29 0.29 0.0 0 1 278.44 534.66
  Z"
/>
<path fill="#fdfcfc" d="
  M 738.19 438.45
  L 749.03 438.45
  A 0.32 0.32 0.0 0 1 749.33 438.86
  L 707.55 575.56
  A 0.32 0.32 0.0 0 1 707.24 575.79
  L 691.28 575.79
  A 0.32 0.32 0.0 0 1 690.97 575.57
  L 662.18 483.41
  A 0.32 0.32 0.0 0 0 661.57 483.41
  L 632.74 575.31
  A 0.32 0.32 0.0 0 1 632.44 575.53
  L 618.01 575.53
  A 0.32 0.32 0.0 0 1 617.70 575.30
  L 576.16 438.99
  A 0.32 0.32 0.0 0 1 576.46 438.58
  L 601.28 438.58
  A 0.32 0.32 0.0 0 1 601.59 438.81
  L 631.38 541.52
  A 0.32 0.32 0.0 0 0 631.99 541.52
  L 662.40 438.86
  A 0.32 0.32 0.0 0 1 662.71 438.63
  L 673.47 438.63
  A 0.32 0.32 0.0 0 1 673.78 438.86
  L 705.44 542.78
  A 0.32 0.32 0.0 0 0 706.06 542.78
  L 737.88 438.68
  A 0.32 0.32 0.0 0 1 738.19 438.45
  Z"
/>
<path fill="#fdfcfc" d="
  M 398.29 578.40
  L 398.29 439.28
  A 0.49 0.49 0.0 0 1 398.78 438.79
  L 421.80 438.79
  A 0.49 0.49 0.0 0 1 422.29 439.28
  L 422.29 566.65
  A 0.49 0.49 0.0 0 0 422.78 567.14
  L 478.19 567.14
  A 0.49 0.49 0.0 0 1 478.68 567.63
  L 478.68 578.40
  A 0.49 0.49 0.0 0 1 478.19 578.89
  L 398.78 578.89
  A 0.49 0.49 0.0 0 1 398.29 578.40
  Z"
/>
<path fill="#fdfcfc" d="
  M 463.88 500.55
  C 464.71 467.13 485.76 440.48 521.20 441.36
  C 556.64 442.24 576.34 469.92 575.51 503.33
  C 574.67 536.75 553.62 563.41 518.18 562.53
  C 482.74 561.64 463.04 533.97 463.88 500.55
  Z
  M 483.42 502.62
  C 483.78 525.52 492.32 553.94 520.47 553.50
  C 548.63 553.06 556.27 524.38 555.90 501.48
  C 555.54 478.58 547.01 450.16 518.85 450.60
  C 490.70 451.04 483.06 479.72 483.42 502.62
  Z"
/>
<path fill="#060606" d="
  M 518.85 450.60
  C 547.01 450.16 555.54 478.58 555.90 501.48
  C 556.27 524.38 548.63 553.06 520.47 553.50
  C 492.32 553.94 483.78 525.52 483.42 502.62
  C 483.06 479.72 490.70 451.04 518.85 450.60
  Z"
/>
<path fill="#fdfcfc" d="
  M 192.15 767.12
  A 0.42 0.42 0.0 0 1 191.73 766.70
  L 191.85 617.12
  A 0.30 0.30 0.0 0 1 192.15 616.82
  Q 206.60 616.75 225.81 616.68
  C 244.18 616.60 259.31 616.32 272.95 625.25
  Q 287.06 634.50 290.02 651.83
  C 291.54 660.74 290.72 670.91 286.69 679.34
  C 278.93 695.60 261.72 702.57 244.24 703.18
  Q 234.05 703.54 216.71 703.42
  A 0.52 0.52 0.0 0 0 216.19 703.94
  L 216.14 766.68
  A 0.46 0.46 0.0 0 1 215.67 767.14
  L 192.15 767.12
  Z
  M 216.28 629.10
  L 216.38 690.88
  A 0.36 0.36 0.0 0 0 216.74 691.24
  L 238.93 691.20
  A 27.99 27.36 -0.1 0 0 266.88 663.80
  L 266.86 656.02
  A 27.99 27.36 -0.1 0 0 238.83 628.70
  L 216.64 628.74
  A 0.36 0.36 0.0 0 0 216.28 629.10
  Z"
/>
<path fill="#fdfcfc" d="
  M 388.12 684.51
  L 330.37 684.51
  A 0.55 0.55 0.0 0 0 329.82 685.06
  L 329.82 740.26
  A 0.55 0.55 0.0 0 0 330.37 740.81
  L 393.09 740.81
  A 0.55 0.55 0.0 0 1 393.64 741.36
  L 393.64 751.74
  A 0.55 0.55 0.0 0 1 393.09 752.29
  L 306.59 752.29
  A 0.55 0.55 0.0 0 1 306.04 751.74
  L 306.04 617.28
  A 0.55 0.55 0.0 0 1 306.59 616.73
  L 392.71 616.73
  A 0.55 0.55 0.0 0 1 393.26 617.28
  L 393.26 627.96
  A 0.55 0.55 0.0 0 1 392.71 628.51
  L 330.35 628.51
  A 0.55 0.55 0.0 0 0 329.80 629.06
  L 329.80 672.74
  A 0.55 0.55 0.0 0 0 330.35 673.29
  L 388.12 673.29
  A 0.55 0.55 0.0 0 1 388.67 673.84
  L 388.67 683.96
  A 0.55 0.55 0.0 0 1 388.12 684.51
  Z"
/>
<path fill="#fdfcfc" d="
  M 541.87 766.89
  A 0.42 0.42 0.0 0 1 541.45 766.47
  L 541.45 617.19
  A 0.30 0.30 0.0 0 1 541.75 616.89
  Q 556.17 616.81 575.34 616.72
  C 593.68 616.63 608.78 616.33 622.40 625.24
  Q 636.49 634.46 639.46 651.75
  C 640.98 660.64 640.17 670.79 636.16 679.21
  C 628.42 695.44 611.25 702.41 593.81 703.04
  Q 583.64 703.40 566.33 703.30
  A 0.52 0.52 0.0 0 0 565.81 703.82
  L 565.81 766.43
  A 0.46 0.46 0.0 0 1 565.35 766.89
  L 541.87 766.89
  Z
  M 565.80 629.33
  L 565.80 690.74
  A 0.44 0.44 0.0 0 0 566.23 691.18
  Q 578.82 691.35 589.24 690.80
  C 600.94 690.17 611.71 684.65 614.74 672.71
  Q 616.39 666.22 616.26 658.99
  C 615.95 641.90 607.35 630.07 588.98 628.73
  Q 585.32 628.47 566.42 628.71
  A 0.62 0.62 0.0 0 0 565.80 629.33
  Z"
/>
<path fill="#fdfcfc" d="
  M 679.96 740.73
  L 730.90 740.73
  A 0.43 0.43 0.0 0 1 731.33 741.16
  L 731.33 751.83
  A 0.43 0.43 0.0 0 1 730.90 752.26
  L 655.67 752.26
  A 0.43 0.43 0.0 0 1 655.24 751.83
  L 655.24 617.26
  A 0.43 0.43 0.0 0 1 655.67 616.83
  L 679.10 616.83
  A 0.43 0.43 0.0 0 1 679.53 617.26
  L 679.53 740.30
  A 0.43 0.43 0.0 0 0 679.96 740.73
  Z"
/>
<path fill="#fdfcfc" d="
  M 826.33 673.78
  L 826.33 683.97
  A 0.53 0.53 0.0 0 1 825.80 684.50
  L 768.21 684.50
  A 0.53 0.53 0.0 0 0 767.68 685.03
  L 767.68 740.34
  A 0.53 0.53 0.0 0 0 768.21 740.87
  L 831.52 740.87
  A 0.53 0.53 0.0 0 1 832.05 741.40
  L 832.05 751.80
  A 0.53 0.53 0.0 0 1 831.52 752.33
  L 743.74 752.33
  A 0.53 0.53 0.0 0 1 743.21 751.80
  L 743.21 617.29
  A 0.53 0.53 0.0 0 1 743.74 616.76
  L 831.42 616.76
  A 0.53 0.53 0.0 0 1 831.95 617.29
  L 831.95 627.95
  A 0.53 0.53 0.0 0 1 831.42 628.48
  L 768.20 628.48
  A 0.53 0.53 0.0 0 0 767.67 629.01
  L 767.67 672.72
  A 0.53 0.53 0.0 0 0 768.20 673.25
  L 825.80 673.25
  A 0.53 0.53 0.0 0 1 826.33 673.78
  Z"
/>
<path fill="#fdfcfc" d="
  M 467.64 617.83
  C 506.31 619.00 527.65 649.32 526.55 685.79
  C 525.45 722.26 502.31 751.23 463.64 750.06
  C 424.96 748.89 403.62 718.57 404.73 682.10
  C 405.83 645.63 428.96 616.66 467.64 617.83
  Z
  M 427.91 683.68
  C 427.86 697.31 429.88 711.06 437.04 722.92
  C 443.18 733.10 453.29 739.19 465.52 739.23
  C 477.74 739.27 487.90 733.26 494.11 723.12
  C 501.35 711.31 503.46 697.57 503.51 683.94
  C 503.56 670.32 501.54 656.56 494.38 644.70
  C 488.24 634.52 478.13 628.44 465.90 628.39
  C 453.68 628.35 443.52 634.36 437.31 644.50
  C 430.07 656.31 427.96 670.05 427.91 683.68
  Z"
/>
<path fill="#060606" d="
  M 465.90 628.39
  C 478.13 628.44 488.24 634.52 494.38 644.70
  C 501.54 656.56 503.56 670.32 503.51 683.94
  C 503.46 697.57 501.35 711.31 494.11 723.12
  C 487.90 733.26 477.74 739.27 465.52 739.23
  C 453.29 739.19 443.18 733.10 437.04 722.92
  C 429.88 711.06 427.86 697.31 427.91 683.68
  C 427.96 670.05 430.07 656.31 437.31 644.50
  C 443.52 634.36 453.68 628.35 465.90 628.39
  Z"
/>
<path fill="#060606" d="
  M 566.42 628.71
  Q 585.32 628.47 588.98 628.73
  C 607.35 630.07 615.95 641.90 616.26 658.99
  Q 616.39 666.22 614.74 672.71
  C 611.71 684.65 600.94 690.17 589.24 690.80
  Q 578.82 691.35 566.23 691.18
  A 0.44 0.44 0.0 0 1 565.80 690.74
  L 565.80 629.33
  A 0.62 0.62 0.0 0 1 566.42 628.71
  Z"
/>
<path fill="#060606" d="
  M 216.28 629.10
  A 0.36 0.36 0.0 0 1 216.64 628.74
  L 238.83 628.70
  A 27.99 27.36 -0.1 0 1 266.86 656.02
  L 266.88 663.80
  A 27.99 27.36 -0.1 0 1 238.93 691.20
  L 216.74 691.24
  A 0.36 0.36 0.0 0 1 216.38 690.88
  L 216.28 629.10
  Z"
/>
</svg>
